<?xml version="1.0" encoding="UTF-8" standalone="no"?>
<!DOCTYPE svg PUBLIC "-//W3C//DTD SVG 1.1//EN"
 "http://www.w3.org/Graphics/SVG/1.1/DTD/svg11.dtd">
<!-- Generated by graphviz version 9.0.0 (20230911.1827)
 -->
<!-- Title: G Pages: 1 -->
<svg width="464pt" height="167pt"
 viewBox="0.00 0.00 463.95 167.13" xmlns="http://www.w3.org/2000/svg" xmlns:xlink="http://www.w3.org/1999/xlink">
<g id="graph0" class="graph" transform="scale(1 1) rotate(0) translate(21.6 145.53)">
<title>G</title>
<polygon fill="#111111" stroke="none" points="-21.6,21.6 -21.6,-145.53 442.35,-145.53 442.35,21.6 -21.6,21.6"/>
<!-- ../package.json -->
<g id="node1" class="node">
<title>../package.json</title>
<path fill="none" stroke="#cfffac" d="M412.83,-85.75C412.83,-85.75 321.92,-85.75 321.92,-85.75 317.96,-85.75 314,-81.79 314,-77.83 314,-77.83 314,-69.92 314,-69.92 314,-65.96 317.96,-62 321.92,-62 321.92,-62 412.83,-62 412.83,-62 416.79,-62 420.75,-65.96 420.75,-69.92 420.75,-69.92 420.75,-77.83 420.75,-77.83 420.75,-81.79 416.79,-85.75 412.83,-85.75"/>
<text text-anchor="middle" x="367.38" y="-68.45" font-family="Arial" font-size="14.00" fill="#cfffac">../package.json</text>
</g>
<!-- cli.js -->
<g id="node2" class="node">
<title>cli.js</title>
<path fill="none" stroke="#c6c5fe" d="M46.08,-86.75C46.08,-86.75 7.92,-86.75 7.92,-86.75 3.96,-86.75 0,-82.79 0,-78.83 0,-78.83 0,-70.92 0,-70.92 0,-66.96 3.96,-63 7.92,-63 7.92,-63 46.08,-63 46.08,-63 50.04,-63 54,-66.96 54,-70.92 54,-70.92 54,-78.83 54,-78.83 54,-82.79 50.04,-86.75 46.08,-86.75"/>
<text text-anchor="middle" x="27" y="-69.45" font-family="Arial" font-size="14.00" fill="#c6c5fe">cli.js</text>
</g>
<!-- runner.js -->
<g id="node3" class="node">
<title>runner.js</title>
<path fill="none" stroke="#c6c5fe" d="M149.83,-86.75C149.83,-86.75 97.92,-86.75 97.92,-86.75 93.96,-86.75 90,-82.79 90,-78.83 90,-78.83 90,-70.92 90,-70.92 90,-66.96 93.96,-63 97.92,-63 97.92,-63 149.83,-63 149.83,-63 153.79,-63 157.75,-66.96 157.75,-70.92 157.75,-70.92 157.75,-78.83 157.75,-78.83 157.75,-82.79 153.79,-86.75 149.83,-86.75"/>
<text text-anchor="middle" x="123.88" y="-69.45" font-family="Arial" font-size="14.00" fill="#c6c5fe">runner.js</text>
</g>
<!-- cli.js&#45;&gt;runner.js -->
<g id="edge1" class="edge">
<title>cli.js&#45;&gt;runner.js</title>
<path fill="none" stroke="#757575" d="M54.43,-74.88C61.88,-74.88 70.2,-74.88 78.4,-74.88"/>
<polygon fill="#757575" stroke="#757575" points="78.3,-78.38 88.3,-74.88 78.3,-71.38 78.3,-78.38"/>
</g>
<!-- runner.js&#45;&gt;../package.json -->
<g id="edge2" class="edge">
<title>runner.js&#45;&gt;../package.json</title>
<path fill="none" stroke="#757575" d="M139.59,-87.19C152.82,-97.39 173.25,-111.12 193.75,-116.88 229.8,-127 241.51,-125.28 278,-116.88 299.2,-111.99 321.21,-101.3 337.97,-91.8"/>
<polygon fill="#757575" stroke="#757575" points="339.51,-94.96 346.36,-86.87 335.96,-88.92 339.51,-94.96"/>
</g>
<!-- config.js -->
<g id="node4" class="node">
<title>config.js</title>
<path fill="none" stroke="#cfffac" d="M260.71,-107.75C260.71,-107.75 211.04,-107.75 211.04,-107.75 207.08,-107.75 203.12,-103.79 203.12,-99.83 203.12,-99.83 203.12,-91.92 203.12,-91.92 203.12,-87.96 207.08,-84 211.04,-84 211.04,-84 260.71,-84 260.71,-84 264.67,-84 268.62,-87.96 268.62,-91.92 268.62,-91.92 268.62,-99.83 268.62,-99.83 268.62,-103.79 264.67,-107.75 260.71,-107.75"/>
<text text-anchor="middle" x="235.88" y="-90.45" font-family="Arial" font-size="14.00" fill="#cfffac">config.js</text>
</g>
<!-- runner.js&#45;&gt;config.js -->
<g id="edge3" class="edge">
<title>runner.js&#45;&gt;config.js</title>
<path fill="none" stroke="#757575" d="M158.18,-81.23C168.69,-83.24 180.46,-85.49 191.57,-87.61"/>
<polygon fill="#757575" stroke="#757575" points="190.85,-91.03 201.33,-89.47 192.17,-84.16 190.85,-91.03"/>
</g>
<!-- recursive.js -->
<g id="node5" class="node">
<title>recursive.js</title>
<path fill="none" stroke="#cfffac" d="M270.08,-65.75C270.08,-65.75 201.67,-65.75 201.67,-65.75 197.71,-65.75 193.75,-61.79 193.75,-57.83 193.75,-57.83 193.75,-49.92 193.75,-49.92 193.75,-45.96 197.71,-42 201.67,-42 201.67,-42 270.08,-42 270.08,-42 274.04,-42 278,-45.96 278,-49.92 278,-49.92 278,-57.83 278,-57.83 278,-61.79 274.04,-65.75 270.08,-65.75"/>
<text text-anchor="middle" x="235.88" y="-48.45" font-family="Arial" font-size="14.00" fill="#cfffac">recursive.js</text>
</g>
<!-- runner.js&#45;&gt;recursive.js -->
<g id="edge4" class="edge">
<title>runner.js&#45;&gt;recursive.js</title>
<path fill="none" stroke="#757575" d="M158.18,-68.52C165.83,-67.06 174.15,-65.47 182.39,-63.89"/>
<polygon fill="#757575" stroke="#757575" points="182.86,-67.37 192.03,-62.06 181.55,-60.49 182.86,-67.37"/>
</g>
<!-- trace.js -->
<g id="node6" class="node">
<title>trace.js</title>
<path fill="none" stroke="#c6c5fe" d="M257.71,-23.75C257.71,-23.75 214.04,-23.75 214.04,-23.75 210.08,-23.75 206.12,-19.79 206.12,-15.83 206.12,-15.83 206.12,-7.92 206.12,-7.92 206.12,-3.96 210.08,0 214.04,0 214.04,0 257.71,0 257.71,0 261.67,0 265.62,-3.96 265.62,-7.92 265.62,-7.92 265.62,-15.83 265.62,-15.83 265.62,-19.79 261.67,-23.75 257.71,-23.75"/>
<text text-anchor="middle" x="235.88" y="-6.45" font-family="Arial" font-size="14.00" fill="#c6c5fe">trace.js</text>
</g>
<!-- runner.js&#45;&gt;trace.js -->
<g id="edge5" class="edge">
<title>runner.js&#45;&gt;trace.js</title>
<path fill="none" stroke="#757575" d="M144.24,-62.53C157.91,-53.94 176.76,-42.38 193.75,-32.88 195.77,-31.74 197.86,-30.6 199.98,-29.46"/>
<polygon fill="#757575" stroke="#757575" points="201.36,-32.69 208.58,-24.94 198.1,-26.49 201.36,-32.69"/>
</g>
<!-- trace.js&#45;&gt;../package.json -->
<g id="edge6" class="edge">
<title>trace.js&#45;&gt;../package.json</title>
<path fill="none" stroke="#757575" d="M262.46,-24.12C281.97,-33.47 309.08,-46.44 330.72,-56.8"/>
<polygon fill="#757575" stroke="#757575" points="328.95,-59.84 339.48,-61 331.97,-53.52 328.95,-59.84"/>
</g>
</g>
</svg>
