<?xml version="1.0" encoding="UTF-8" standalone="no"?>
<!DOCTYPE svg PUBLIC "-//W3C//DTD SVG 1.1//EN"
 "http://www.w3.org/Graphics/SVG/1.1/DTD/svg11.dtd">
<!-- Generated by graphviz version 12.1.2 (20240928.0832)
 -->
<!-- Title: G Pages: 1 -->
<svg width="464pt" height="166pt"
 viewBox="0.00 0.00 463.95 166.13" xmlns="http://www.w3.org/2000/svg" xmlns:xlink="http://www.w3.org/1999/xlink">
<g id="graph0" class="graph" transform="scale(1 1) rotate(0) translate(21.6 144.53)">
<title>G</title>
<polygon fill="#111111" stroke="none" points="-21.6,21.6 -21.6,-144.53 442.35,-144.53 442.35,21.6 -21.6,21.6"/>
<!-- ../package.json -->
<g id="node1" class="node">
<title>../package.json</title>
<path fill="none" stroke="#cfffac" d="M412.83,-106.75C412.83,-106.75 321.92,-106.75 321.92,-106.75 317.96,-106.75 314,-102.79 314,-98.83 314,-98.83 314,-90.92 314,-90.92 314,-86.96 317.96,-83 321.92,-83 321.92,-83 412.83,-83 412.83,-83 416.79,-83 420.75,-86.96 420.75,-90.92 420.75,-90.92 420.75,-98.83 420.75,-98.83 420.75,-102.79 416.79,-106.75 412.83,-106.75"/>
<text text-anchor="middle" x="367.38" y="-89.45" font-family="Arial" font-size="14.00" fill="#cfffac">../package.json</text>
</g>
<!-- cli.js -->
<g id="node2" class="node">
<title>cli.js</title>
<path fill="none" stroke="#c6c5fe" d="M46.08,-86.75C46.08,-86.75 7.92,-86.75 7.92,-86.75 3.96,-86.75 0,-82.79 0,-78.83 0,-78.83 0,-70.92 0,-70.92 0,-66.96 3.96,-63 7.92,-63 7.92,-63 46.08,-63 46.08,-63 50.04,-63 54,-66.96 54,-70.92 54,-70.92 54,-78.83 54,-78.83 54,-82.79 50.04,-86.75 46.08,-86.75"/>
<text text-anchor="middle" x="27" y="-69.45" font-family="Arial" font-size="14.00" fill="#c6c5fe">cli.js</text>
</g>
<!-- runner.js -->
<g id="node3" class="node">
<title>runner.js</title>
<path fill="none" stroke="#c6c5fe" d="M149.83,-86.75C149.83,-86.75 97.92,-86.75 97.92,-86.75 93.96,-86.75 90,-82.79 90,-78.83 90,-78.83 90,-70.92 90,-70.92 90,-66.96 93.96,-63 97.92,-63 97.92,-63 149.83,-63 149.83,-63 153.79,-63 157.75,-66.96 157.75,-70.92 157.75,-70.92 157.75,-78.83 157.75,-78.83 157.75,-82.79 153.79,-86.75 149.83,-86.75"/>
<text text-anchor="middle" x="123.88" y="-69.45" font-family="Arial" font-size="14.00" fill="#c6c5fe">runner.js</text>
</g>
<!-- cli.js&#45;&gt;runner.js -->
<g id="edge1" class="edge">
<title>cli.js&#45;&gt;runner.js</title>
<path fill="none" stroke="#757575" d="M54.43,-74.88C61.88,-74.88 70.2,-74.88 78.4,-74.88"/>
<polygon fill="#757575" stroke="#757575" points="78.3,-78.38 88.3,-74.88 78.3,-71.38 78.3,-78.38"/>
</g>
<!-- runner.js&#45;&gt;../package.json -->
<g id="edge3" class="edge">
<title>runner.js&#45;&gt;../package.json</title>
<path fill="none" stroke="#757575" d="M139.59,-87.19C152.82,-97.39 173.25,-111.12 193.75,-116.88 235.88,-128.71 285.59,-120.11 320.82,-110.41"/>
<polygon fill="#757575" stroke="#757575" points="321.64,-113.82 330.27,-107.67 319.69,-107.1 321.64,-113.82"/>
</g>
<!-- config.js -->
<g id="node4" class="node">
<title>config.js</title>
<path fill="none" stroke="#cfffac" d="M260.71,-107.75C260.71,-107.75 211.04,-107.75 211.04,-107.75 207.08,-107.75 203.12,-103.79 203.12,-99.83 203.12,-99.83 203.12,-91.92 203.12,-91.92 203.12,-87.96 207.08,-84 211.04,-84 211.04,-84 260.71,-84 260.71,-84 264.67,-84 268.62,-87.96 268.62,-91.92 268.62,-91.92 268.62,-99.83 268.62,-99.83 268.62,-103.79 264.67,-107.75 260.71,-107.75"/>
<text text-anchor="middle" x="235.88" y="-90.45" font-family="Arial" font-size="14.00" fill="#cfffac">config.js</text>
</g>
<!-- runner.js&#45;&gt;config.js -->
<g id="edge4" class="edge">
<title>runner.js&#45;&gt;config.js</title>
<path fill="none" stroke="#757575" d="M158.18,-81.23C168.69,-83.24 180.46,-85.49 191.57,-87.61"/>
<polygon fill="#757575" stroke="#757575" points="190.85,-91.03 201.33,-89.47 192.17,-84.16 190.85,-91.03"/>
</g>
<!-- log.js -->
<g id="node5" class="node">
<title>log.js</title>
<path fill="none" stroke="#c6c5fe" d="M254.96,-65.75C254.96,-65.75 216.79,-65.75 216.79,-65.75 212.83,-65.75 208.88,-61.79 208.88,-57.83 208.88,-57.83 208.88,-49.92 208.88,-49.92 208.88,-45.96 212.83,-42 216.79,-42 216.79,-42 254.96,-42 254.96,-42 258.92,-42 262.88,-45.96 262.88,-49.92 262.88,-49.92 262.88,-57.83 262.88,-57.83 262.88,-61.79 258.92,-65.75 254.96,-65.75"/>
<text text-anchor="middle" x="235.88" y="-48.45" font-family="Arial" font-size="14.00" fill="#c6c5fe">log.js</text>
</g>
<!-- runner.js&#45;&gt;log.js -->
<g id="edge5" class="edge">
<title>runner.js&#45;&gt;log.js</title>
<path fill="none" stroke="#757575" d="M158.18,-68.52C170.57,-66.15 184.72,-63.45 197.45,-61.02"/>
<polygon fill="#757575" stroke="#757575" points="198.01,-64.48 207.18,-59.16 196.7,-57.6 198.01,-64.48"/>
</g>
<!-- recursive.js -->
<g id="node6" class="node">
<title>recursive.js</title>
<path fill="none" stroke="#cfffac" d="M270.08,-23.75C270.08,-23.75 201.67,-23.75 201.67,-23.75 197.71,-23.75 193.75,-19.79 193.75,-15.83 193.75,-15.83 193.75,-7.92 193.75,-7.92 193.75,-3.96 197.71,0 201.67,0 201.67,0 270.08,0 270.08,0 274.04,0 278,-3.96 278,-7.92 278,-7.92 278,-15.83 278,-15.83 278,-19.79 274.04,-23.75 270.08,-23.75"/>
<text text-anchor="middle" x="235.88" y="-6.45" font-family="Arial" font-size="14.00" fill="#cfffac">recursive.js</text>
</g>
<!-- runner.js&#45;&gt;recursive.js -->
<g id="edge6" class="edge">
<title>runner.js&#45;&gt;recursive.js</title>
<path fill="none" stroke="#757575" d="M144.24,-62.53C157.91,-53.94 176.76,-42.38 193.75,-32.88 195.77,-31.74 197.86,-30.6 199.98,-29.46"/>
<polygon fill="#757575" stroke="#757575" points="201.36,-32.69 208.58,-24.94 198.1,-26.49 201.36,-32.69"/>
</g>
<!-- log.js&#45;&gt;../package.json -->
<g id="edge2" class="edge">
<title>log.js&#45;&gt;../package.json</title>
<path fill="none" stroke="#757575" d="M263.08,-62.17C278.45,-67.04 298.39,-73.35 316.63,-79.13"/>
<polygon fill="#757575" stroke="#757575" points="315.39,-82.41 325.98,-82.09 317.51,-75.73 315.39,-82.41"/>
</g>
</g>
</svg>
